# This file uses centimeters as units for non-parametric coordinates.

mtllib mesh_energy.mtl
g default
v -0.603326 -1.448970 -0.319394
v -0.544370 -1.428324 -0.366373
v -0.418001 -1.446976 -0.366373
v -0.395212 -1.493955 -0.319394
v -0.155481 0.060081 -0.366373
v -0.222823 0.024407 -0.319394
v 0.018524 0.152259 -0.366373
v 0.101820 0.196384 -0.319394
v -0.544370 -1.428324 0.366373
v -0.603326 -1.448970 0.319394
v -0.395212 -1.493955 0.319394
v -0.418001 -1.446976 0.366373
v -0.486989 -1.473949 0.366373
v -0.502809 -1.526171 0.319394
v -0.222823 0.024407 0.319394
v -0.155481 0.060081 0.366373
v -0.502809 -1.526171 -0.319394
v -0.486989 -1.473949 -0.366373
v 0.101820 0.196384 0.319394
v 0.018524 0.152259 0.366373
v -0.385746 1.380635 -0.366373
v -0.247154 1.479192 -0.366373
v -0.330966 1.450325 -0.366373
v -0.419097 1.427778 -0.319394
v -0.280736 1.526171 -0.319394
v -0.364408 1.497353 -0.319394
v 0.760455 1.526171 -0.319394
v 0.821578 1.421063 -0.319394
v 0.829263 1.495385 -0.319394
v 0.674262 1.479192 -0.366373
v 0.736089 1.373032 -0.366373
v 0.743827 1.448098 -0.366373
v -0.808406 -0.027702 -0.319394
v -0.891758 0.067769 -0.319394
v -0.882629 -0.004171 -0.319394
v -0.745170 0.008164 -0.366373
v -0.829385 0.104132 -0.366373
v -0.820071 0.031850 -0.366373
v 0.825371 0.195640 -0.319394
v 0.873911 0.097298 -0.319394
v 0.891758 0.166783 -0.319394
v 0.728936 0.151438 -0.366373
v 0.778231 0.051798 -0.366373
v 0.796275 0.122193 -0.366373
v 0.736089 1.373032 0.366373
v 0.674262 1.479192 0.366373
v 0.743827 1.448098 0.366373
v 0.821578 1.421063 0.319394
v 0.760455 1.526171 0.319394
v 0.829263 1.495385 0.319394
v -0.280736 1.526171 0.319394
v -0.419097 1.427778 0.319394
v -0.364408 1.497353 0.319394
v -0.247154 1.479192 0.366373
v -0.385746 1.380635 0.366373
v -0.330966 1.450325 0.366373
v -0.829385 0.104132 0.366373
v -0.745170 0.008164 0.366373
v -0.820071 0.031850 0.366373
v -0.891758 0.067769 0.319394
v -0.808406 -0.027702 0.319394
v -0.882629 -0.004171 0.319394
v 0.778231 0.051798 0.366373
v 0.728936 0.151438 0.366373
v 0.796275 0.122193 0.366373
v 0.873911 0.097298 0.319394
v 0.825371 0.195640 0.319394
v 0.891758 0.166783 0.319394
vt 0.174258 0.345493
vt 0.352809 0.025536
vt 0.389560 0.164830
vt 0.312520 0.458311
vt 0.188790 0.816963
vt 0.169487 0.500816
vt 0.185819 0.505954
vt 0.202262 0.804226
vt 0.883089 0.307557
vt 0.623251 0.643674
vt 0.598101 0.652329
vt 0.875002 0.293599
vt 0.634546 0.665728
vt 0.792376 0.668867
vt 0.769605 0.680453
vt 0.611568 0.679409
vt 0.898261 0.301556
vt 0.619502 0.659362
vt 0.397581 0.525028
vt 0.427919 0.842203
vt 0.416175 0.826764
vt 0.373076 0.506415
vt 0.479331 0.963351
vt 0.143755 0.963352
vt 0.216633 0.838481
vt 0.414060 0.865257
vt 0.092754 0.913376
vt 0.014966 0.485465
vt 0.402056 0.019825
vt 0.409030 0.148979
vt 0.964888 0.640691
vt 0.833202 0.648220
vt 0.851673 0.636767
vt 0.980332 0.627701
vt 0.633275 0.946774
vt 0.610096 0.956914
vt 0.902626 0.286087
vt 0.885164 0.947832
vt 0.981769 0.661830
vt 1.000000 0.654233
vt 0.896696 0.960282
vt 0.041595 0.441747
vt 0.180055 0.479201
vt 0.700807 0.494897
vt 0.557512 0.615879
vt 0.557382 0.479652
vt 0.911506 0.311280
vt 0.928715 0.305187
vt 0.631615 0.963443
vt 0.873047 0.963473
vt 0.854315 0.969986
vt 0.647287 0.970286
vt 0.525370 0.926174
vt 0.447722 0.020360
vt 0.727246 0.449325
vt 0.565075 0.460006
vt 0.429530 0.148507
vt 0.421333 0.163155
vt 0.410748 0.158299
vt 0.210835 0.819074
vt 0.413676 0.843330
vt 0.399256 0.848455
vt 0.226589 0.826626
vt 0.545181 0.454021
vt 0.529328 0.477610
vt 0.331255 0.480726
vt 0.398559 0.168303
vt 0.197874 0.484862
vt 0.610558 0.975638
vt 0.626941 0.984891
vt 0.882719 0.976826
vt 0.862697 0.984890
vt 0.980679 0.646119
vt 0.997271 0.636838
vt 0.595861 0.669992
vt 0.424048 0.856279
vt 0.201057 0.829921
vt 0.171311 0.489569
vt 0.184211 0.490561
vt 0.565329 0.469831
vt 0.544390 0.469449
vt 0.714168 0.472796
vt 0.117596 0.938947
vt 0.027644 0.463744
vt 0.502979 0.945441
vn -0.968243 0.250011 -0.000000
vn -0.968243 0.250011 -0.000000
vn -0.968243 0.250011 -0.000000
vn -0.968243 0.250011 -0.000000
vn -0.667916 0.232106 0.707117
vn -0.667916 0.232106 0.707117
vn -0.667916 0.232106 0.707117
vn -0.667916 0.232106 0.707117
vn 0.553997 -0.441998 -0.705496
vn 0.553997 -0.441998 -0.705496
vn 0.553997 -0.441998 -0.705496
vn 0.553997 -0.441998 -0.705496
vn 0.000800 0.727844 -0.685742
vn 0.000800 0.727844 -0.685742
vn 0.000800 0.727844 -0.685742
vn 0.000800 0.727844 -0.685742
vn 0.000000 0.000000 -1.000000
vn 0.000000 0.000000 -1.000000
vn 0.000000 0.000000 -1.000000
vn 0.594075 -0.349185 0.724669
vn 0.594075 -0.349185 0.724669
vn 0.594075 -0.349185 0.724669
vn 0.594075 -0.349185 0.724669
vn -0.000000 1.000000 -0.000000
vn -0.000000 1.000000 -0.000000
vn -0.000000 1.000000 -0.000000
vn -0.000000 1.000000 -0.000000
vn -0.944576 0.328292 -0.000000
vn -0.944576 0.328292 -0.000000
vn -0.944576 0.328292 -0.000000
vn -0.944576 0.328292 -0.000000
vn -0.609097 -0.793096 0.000000
vn -0.609097 -0.793096 0.000000
vn -0.609097 -0.793096 0.000000
vn -0.609097 -0.793096 0.000000
vn 0.074403 -0.840536 -0.536623
vn 0.074403 -0.840536 -0.536623
vn 0.074403 -0.840536 -0.536623
vn 0.074403 -0.840536 -0.536623
vn 0.594075 -0.349185 -0.724669
vn 0.594075 -0.349185 -0.724669
vn 0.594075 -0.349185 -0.724669
vn 0.594075 -0.349185 -0.724669
vn 0.221998 -0.662194 -0.715693
vn 0.221998 -0.662194 -0.715693
vn -0.667916 0.232106 -0.707117
vn -0.667916 0.232106 -0.707117
vn -0.667916 0.232106 -0.707117
vn -0.667916 0.232106 -0.707117
vn 0.088597 -0.996068 0.000000
vn 0.088597 -0.996068 0.000000
vn 0.088597 -0.996068 0.000000
vn 0.088597 -0.996068 0.000000
vn 0.001000 1.000000 0.000000
vn 0.001000 1.000000 0.000000
vn 0.001000 1.000000 0.000000
vn 0.001000 1.000000 0.000000
vn -0.634993 0.164998 -0.754692
vn -0.634993 0.164998 -0.754692
vn -0.634993 0.164998 -0.754692
vn -0.634993 0.164998 -0.754692
vn 0.000000 0.000000 -1.000000
vn 0.000000 0.000000 -1.000000
vn 0.000000 0.000000 -1.000000
vn 0.000000 0.000000 -1.000000
vn 0.862117 -0.506710 0.000000
vn 0.862117 -0.506710 0.000000
vn 0.862117 -0.506710 0.000000
vn 0.862117 -0.506710 0.000000
vn 0.781814 -0.623511 0.000000
vn 0.781814 -0.623511 0.000000
vn 0.781814 -0.623511 0.000000
vn 0.781814 -0.623511 0.000000
vn 0.221998 -0.662194 0.715693
vn 0.221998 -0.662194 0.715693
vn 0.221998 -0.662194 0.715693
vn 0.221998 -0.662194 0.715693
vn 0.000000 0.000000 1.000000
vn 0.000000 0.000000 1.000000
vn 0.000000 0.000000 1.000000
vn 0.000000 0.000000 1.000000
vn 0.553997 -0.441998 0.705496
vn 0.553997 -0.441998 0.705496
vn 0.000000 0.000000 1.000000
vn 0.000000 0.000000 1.000000
vn 0.000000 0.000000 1.000000
vn 0.000000 0.000000 1.000000
vn -0.634993 0.164998 0.754692
vn -0.634993 0.164998 0.754692
vn -0.634993 0.164998 0.754692
vn -0.634993 0.164998 0.754692
vn 0.074403 -0.840536 0.536623
vn 0.074403 -0.840536 0.536623
vn 0.074403 -0.840536 0.536623
vn 0.074403 -0.840536 0.536623
vn 0.000000 0.707107 0.707107
vn 0.000000 0.707107 0.707107
vn 0.000000 0.707107 0.707107
vn 0.000000 0.707107 0.707107
vn 0.000800 0.727844 0.685742
vn 0.000800 0.727844 0.685742
vn 0.000800 0.727844 0.685742
vn 0.000800 0.727844 0.685742
vn 0.286797 -0.957991 0.000000
vn 0.286797 -0.957991 0.000000
vn 0.286797 -0.957991 0.000000
vn 0.286797 -0.957991 0.000000
vn 0.503204 -0.051900 -0.862608
vn 0.503204 -0.051900 -0.862608
vn 0.210503 0.470706 -0.856811
vn 0.210503 0.470706 -0.856811
vn 0.210503 0.470706 -0.856811
vn 0.210503 0.470706 -0.856811
vn -0.508713 0.399910 -0.762419
vn -0.508713 0.399910 -0.762419
vn -0.210706 0.611816 -0.762420
vn -0.210706 0.611816 -0.762420
vn -0.571995 -0.073099 -0.816993
vn -0.571995 -0.073099 -0.816993
vn -0.199699 -0.630696 -0.749895
vn -0.199699 -0.630696 -0.749895
vn 0.484199 -0.124200 -0.866098
vn 0.203794 0.468985 -0.859373
vn 0.203794 0.468985 -0.859373
vn 0.503204 -0.051900 0.862608
vn 0.503204 -0.051900 0.862608
vn 0.210503 0.470706 0.856811
vn 0.210503 0.470706 0.856811
vn -0.508713 0.399910 0.762419
vn -0.508713 0.399910 0.762419
vn -0.571995 -0.073099 0.816993
vn -0.571995 -0.073099 0.816993
vn -0.199699 -0.630696 0.749895
vn -0.199699 -0.630696 0.749895
vn 0.484199 -0.124200 0.866098
vn 0.484199 -0.124200 0.866098
vn 0.203794 0.468985 0.859373
vn 0.203794 0.468985 0.859373
vn 0.398609 0.917121 0.000000
vn 0.398609 0.917121 0.000000
vn 0.968558 -0.248789 0.000000
vn 0.968558 -0.248789 0.000000
vn -0.325602 0.945507 -0.000000
vn -0.325602 0.945507 -0.000000
vn -0.786187 0.617989 -0.000000
vn -0.786187 0.617989 -0.000000
vn -0.302213 -0.953240 0.000000
vn -0.302213 -0.953240 0.000000
vn -0.992042 -0.125905 0.000000
vn -0.992042 -0.125905 0.000000
vn 0.994692 -0.102899 0.000000
vn 0.994692 -0.102899 0.000000
vn 0.408401 0.912803 0.000000
vn 0.408401 0.912803 0.000000
vn -0.412895 -0.530693 0.740191
vn -0.412895 -0.530693 0.740191
vn -0.412895 -0.530693 0.740191
vn -0.412895 -0.530693 0.740191
vn -0.412895 -0.530693 -0.740191
vn -0.412895 -0.530693 -0.740191
vn -0.412895 -0.530693 -0.740191
vn -0.412895 -0.530693 -0.740191
vn 0.000000 0.000000 1.000000
vn 0.000000 0.000000 1.000000
vn 0.000000 0.000000 1.000000
vn 0.000000 0.000000 1.000000
vn 0.000000 0.000000 1.000000
vn 0.000000 0.000000 1.000000
vn 0.000000 0.000000 1.000000
vn 0.000000 0.000000 -1.000000
vn 0.000000 0.000000 -1.000000
vn 0.000000 0.000000 -1.000000
vn 0.000000 0.000000 -1.000000
vn 0.000000 0.000000 -1.000000
vn 0.000000 0.000000 -1.000000
vn 0.000000 0.000000 -1.000000
vn 0.000000 0.000000 -1.000000
vn 0.000000 0.000000 -1.000000
s off
g mesh_energy
usemtl energy
f 6/1/1 1/2/2 10/3/3 15/4/4
s 1
f 52/5/5 60/6/6 57/7/7 55/8/8
s 2
f 3/9/9 43/10/10 40/11/11 4/12/12
s 3
f 42/13/13 7/14/14 8/15/15 39/16/16
s 2
f 18/17/17 44/18/18 43/10/10 3/9/19
s 5
f 19/19/20 48/20/21 45/21/22 20/22/23
s 6
f 27/23/24 25/24/25 51/25/26 49/26/27
s 7
f 24/27/28 34/28/29 60/6/30 52/5/31
s off
f 1/2/32 17/29/33 14/30/34 10/3/35
s 8
f 36/31/36 5/32/37 6/33/38 33/34/39
s 9
f 7/14/40 31/35/41 28/36/42 8/15/43
s 2
f 18/17/44 3/9/9 4/12/12 17/37/45
s 10
f 21/38/46 37/39/47 34/40/48 24/41/49
s 11
f 33/42/50 6/1/51 15/4/52 61/43/53
s 12
f 39/44/54 8/45/55 19/19/56 67/46/57
s off
f 5/32/58 2/47/59 1/48/60 6/33/61
s 2
f 32/49/62 23/50/63 22/51/64 30/52/65
s 14
f 8/45/66 28/53/67 48/20/68 19/19/69
s 15
f 4/54/70 40/55/71 66/56/72 11/57/73
s 16
f 14/30/74 11/57/75 12/58/76 13/59/77
f 56/60/78 47/61/79 46/62/80 54/63/81
f 11/57/75 66/56/82 63/64/83 12/58/76
f 64/65/84 20/22/85 16/66/86 9/67/87
s off
f 15/4/88 10/3/89 9/67/90 16/66/91
s 19
f 61/43/92 15/4/93 16/66/94 58/68/95
s 1
f 49/26/96 51/25/97 54/63/98 46/62/99
s 21
f 67/46/100 19/19/101 20/22/102 64/65/103
s off
f 17/29/104 4/54/105 11/57/106 14/30/107
s 9
f 28/36/42 31/35/41 32/49/108 29/69/109
s 10
f 29/69/110 32/49/111 30/52/112 27/70/113
f 21/38/46 24/41/49 26/71/114 23/50/115
f 23/50/115 26/71/114 25/72/116 22/51/117
f 34/40/48 37/39/47 38/73/118 35/74/119
s 8
f 35/74/120 38/73/121 36/31/36 33/34/39
s 2
f 40/11/11 43/10/10 44/18/18 41/75/122
s 3
f 41/75/123 44/18/124 42/13/13 39/16/16
s 5
f 45/21/22 48/20/21 50/76/125 47/61/126
s 1
f 47/61/127 50/76/128 49/26/96 46/62/99
f 52/5/5 55/8/8 56/60/129 53/77/130
f 53/77/130 56/60/129 54/63/98 51/25/97
f 57/7/7 60/6/6 62/78/131 59/79/132
s 19
f 59/79/133 62/78/134 61/43/92 58/68/95
s 16
f 63/64/83 66/56/82 68/80/135 65/81/136
s 21
f 65/81/137 68/80/138 67/46/100 64/65/103
s 12
f 39/44/54 67/46/57 68/80/139 41/82/140
s 15
f 41/82/141 68/80/142 66/56/72 40/55/71
s 6
f 51/25/26 25/24/25 26/83/143 53/77/144
s 7
f 53/77/145 26/83/146 24/27/28 52/5/31
s 11
f 33/42/50 61/43/53 62/78/147 35/84/148
s 7
f 35/84/149 62/78/150 60/6/30 34/28/29
s 14
f 48/20/68 28/53/67 29/85/151 50/76/152
s 6
f 50/76/153 29/85/154 27/23/24 49/26/27
s 10
f 30/52/112 22/51/117 25/72/116 27/70/113
s off
f 10/3/155 14/30/156 13/59/157 9/67/158
f 2/47/159 18/17/160 17/37/161 1/48/162
s 16
f 55/8/163 45/21/164 47/61/79 56/60/78
f 59/79/165 58/68/166 16/66/86 20/22/85
f 63/64/83 65/81/136 13/59/167 12/58/168
f 65/81/136 64/65/84 9/67/87 13/59/167
f 57/7/169 59/79/165 20/22/85 45/21/164
f 55/8/163 57/7/169 45/21/164
s 2
f 31/35/170 21/38/171 23/50/63 32/49/62
f 31/35/170 37/39/172 21/38/171
f 7/14/173 5/32/174 36/31/175 38/73/176
f 31/35/170 7/14/173 38/73/176 37/39/172
f 42/13/177 44/18/18 18/17/17 2/47/178
f 7/14/173 42/13/177 2/47/178 5/32/174
